{"glyphs":{":":{"x_min":0,"x_max":181,"ha":181,"o":"m 59 273 l 59 338 l 125 338 l 125 273 z m 59 0 l 59 65 l 125 65 l 125 0 z"},"$":{"x_min":0,"x_max":363,"ha":363,"o":"m 163 -67 l 163 -10 q 31 6 23 130 l 81 141 q 93 48 163 39 l 163 221 q 103 234 68 265 q 33 295 33 353 q 33 404 65 440 q 97 477 163 483 l 163 510 l 196 510 l 196 483 q 306 472 321 368 l 262 359 q 252 423 196 435 l 196 269 q 273 253 303 218 q 333 184 333 133 q 333 73 294 33 q 256 -6 196 -9 l 196 -67 z m 163 435 q 140 432 124 420 q 108 409 99 393 q 90 377 90 357 q 90 298 163 276 z m 196 39 q 231 43 252 68 q 273 93 273 129 q 273 161 257 180 q 240 200 196 213 z"},"?":{"x_min":0,"x_max":363,"ha":363,"o":"m 150 115 l 150 135 q 150 153 154 170 q 157 187 164 201 q 171 215 182 228 q 214 255 262 310 q 271 326 271 344 q 271 368 260 386 q 248 404 227 416 q 207 428 181 428 q 103 428 88 333 l 29 340 q 45 475 180 475 q 225 475 258 458 q 292 442 311 414 q 330 385 330 348 q 330 306 294 271 q 285 261 262 236 q 239 211 230 201 q 222 190 217 178 q 211 166 209 150 q 206 134 206 115 z m 147 0 l 147 65 l 212 65 l 212 0 z"},"<":{"x_min":0,"x_max":381,"ha":381,"o":"m 36 204 l 36 258 l 345 389 l 345 332 l 100 231 l 345 129 l 345 72 z"},"'":{"x_min":0,"x_max":125,"ha":125,"o":"m 43 302 l 29 389 l 29 467 l 94 467 l 94 389 l 79 302 z"},"=":{"x_min":0,"x_max":381,"ha":381,"o":"m 345 275 l 36 275 l 36 328 l 345 328 z m 345 133 l 36 133 l 36 187 l 345 187 z"},"a":{"x_min":0,"x_max":363,"ha":363,"o":"m 264 42 q 206 -8 139 -8 q 86 -8 55 18 q 23 44 23 89 q 23 115 35 136 q 46 156 72 172 q 98 188 157 195 q 228 204 259 215 l 259 230 q 259 299 178 299 q 133 299 115 282 q 98 266 89 234 l 34 242 q 56 346 186 346 q 223 346 249 338 q 275 331 291 315 q 308 299 312 280 q 317 260 317 218 l 317 69 q 317 59 322 38 q 326 18 335 0 l 275 0 q 267 18 264 42 z m 259 170 q 229 158 166 148 q 114 141 100 126 q 85 112 85 91 q 85 37 153 37 q 177 37 196 43 q 215 49 229 62 q 243 75 251 94 q 259 112 259 149 z"},"L":{"x_min":0,"x_max":363,"ha":363,"o":"m 48 0 l 48 467 l 110 467 l 110 55 l 340 55 l 340 0 z"},"3":{"x_min":0,"x_max":363,"ha":363,"o":"m 27 124 l 85 131 q 104 39 176 39 q 204 39 226 52 q 247 65 260 87 q 272 108 272 137 q 272 177 247 202 q 221 228 181 228 q 165 228 141 221 l 147 271 l 161 271 q 176 271 190 275 q 204 278 215 285 q 227 292 235 302 q 243 311 247 323 q 251 335 251 349 q 251 382 230 402 q 208 422 175 422 q 104 422 90 338 l 33 348 q 55 469 174 469 q 232 469 271 436 q 311 402 311 348 q 311 283 246 253 q 333 233 333 138 q 333 74 288 33 q 243 -8 176 -8 q 135 -8 103 8 q 71 24 51 54 q 31 83 27 124 z"},";":{"x_min":0,"x_max":181,"ha":181,"o":"m 58 273 l 58 338 l 124 338 l 124 273 z m 58 0 l 58 65 l 124 65 l 124 0 q 124 -69 70 -92 l 54 -68 q 89 -53 90 0 z"},"J":{"x_min":0,"x_max":326,"ha":326,"o":"m 18 133 l 73 140 q 77 47 143 47 q 170 47 187 59 q 203 71 208 92 q 212 112 212 146 l 212 467 l 274 467 l 274 149 q 274 67 241 30 q 208 -8 143 -8 q 79 -8 48 27 q 16 62 18 133 z"},"V":{"x_min":0,"x_max":436,"ha":436,"o":"m 184 0 l 3 467 l 70 467 l 191 128 q 205 91 216 51 q 225 83 241 128 l 367 467 l 430 467 l 248 0 z"},"\"":{"x_min":0,"x_max":232,"ha":232,"o":"m 46 302 l 30 391 l 30 467 l 95 467 l 95 391 l 81 302 z m 151 302 l 136 391 l 136 467 l 201 467 l 201 391 l 186 302 z"},"7":{"x_min":0,"x_max":363,"ha":363,"o":"m 31 406 l 31 461 l 333 461 l 333 417 q 259 338 211 224 q 162 109 155 0 l 96 0 q 99 109 147 221 q 196 333 260 406 z"},"S":{"x_min":0,"x_max":436,"ha":436,"o":"m 29 150 l 88 155 q 95 99 133 73 q 171 47 226 47 q 284 47 313 71 q 342 94 342 127 q 342 150 327 167 q 313 184 288 193 q 263 202 199 216 q 152 227 120 241 q 87 255 67 282 q 47 309 47 347 q 47 387 67 415 q 86 442 125 459 q 163 475 211 475 q 296 475 340 437 q 384 398 387 335 l 328 331 q 318 421 214 421 q 107 421 107 351 q 107 330 120 315 q 133 300 154 293 q 175 286 218 276 q 295 258 323 246 q 350 233 367 216 q 384 199 393 178 q 401 157 401 132 q 401 66 351 29 q 301 -8 229 -8 q 132 -8 82 36 q 32 79 29 150 z"},"}":{"x_min":0,"x_max":218,"ha":218,"o":"m 200 195 l 200 143 q 163 142 148 118 q 133 93 133 23 q 133 -34 132 -53 q 130 -73 122 -91 q 114 -108 100 -119 q 87 -130 72 -134 q 58 -137 33 -137 l 15 -137 l 15 -87 l 25 -87 q 61 -87 70 -74 q 80 -60 80 -21 q 80 47 82 77 q 84 106 101 131 q 117 156 146 169 q 118 183 103 203 q 87 224 83 255 q 80 287 78 387 q 76 406 66 416 q 57 425 25 425 l 15 425 l 15 475 l 33 475 q 61 475 79 470 q 96 465 110 449 q 125 433 129 410 q 133 386 133 336 q 133 284 137 255 q 141 227 156 211 q 171 196 200 195 z"},"Z":{"x_min":0,"x_max":399,"ha":399,"o":"m 13 0 l 13 58 l 252 356 q 280 391 301 412 l 40 412 l 40 467 l 375 467 l 375 412 l 84 55 l 382 55 l 382 0 z"},"x":{"x_min":0,"x_max":326,"ha":326,"o":"m 5 0 l 128 176 l 14 338 l 86 338 l 138 259 q 149 242 161 221 q 172 237 187 258 l 244 338 l 312 338 l 196 179 l 322 0 l 251 0 l 163 134 l 74 0 z"},")":{"x_min":0,"x_max":217,"ha":217,"o":"m 81 -137 l 40 -137 q 135 16 135 169 q 135 224 124 276 q 113 328 96 368 q 78 409 40 475 l 81 475 q 194 324 194 169 q 194 6 81 -137 z"},"&":{"x_min":0,"x_max":436,"ha":436,"o":"m 310 55 q 253 -8 176 -8 q 133 -8 102 9 q 70 26 49 58 q 28 91 28 129 q 28 215 139 269 q 87 329 87 371 q 87 416 121 445 q 154 475 203 475 q 234 475 259 462 q 283 449 297 427 q 312 404 312 375 q 312 309 223 262 l 307 155 q 321 183 329 220 l 389 207 q 374 146 348 106 q 379 64 420 35 l 382 -11 q 347 12 310 55 z m 193 299 q 253 333 253 374 q 253 395 240 411 q 226 428 200 428 q 180 428 163 415 q 146 401 146 376 q 146 354 168 328 z m 274 101 l 169 231 q 90 184 90 132 q 90 96 115 69 q 141 42 177 42 q 237 42 274 101 z"},"_":{"x_min":0,"x_max":363,"ha":363,"o":"m -10 -130 l -10 -88 l 371 -88 l 371 -130 z"},"v":{"x_min":0,"x_max":326,"ha":326,"o":"m 137 0 l 8 338 l 69 338 l 142 136 q 153 103 163 67 q 171 94 185 132 l 260 338 l 319 338 l 190 0 z"},"O":{"x_min":0,"x_max":508,"ha":508,"o":"m 32 228 q 32 298 57 353 q 82 408 132 442 q 182 476 255 476 q 304 476 345 458 q 387 440 416 409 q 446 377 462 332 q 479 287 479 233 q 479 158 451 105 q 424 52 371 22 q 317 -8 255 -8 q 190 -8 138 23 q 86 54 59 109 q 32 164 32 228 z m 95 227 q 95 171 116 130 q 137 89 172 67 q 207 45 255 45 q 330 45 372 97 q 415 149 415 233 q 415 292 395 334 q 375 377 340 400 q 305 422 256 422 q 217 422 187 409 q 157 396 136 371 q 116 345 105 309 q 95 273 95 227 z"},"(":{"x_min":0,"x_max":217,"ha":217,"o":"m 153 -137 q 40 5 40 169 q 40 324 153 475 l 194 475 q 132 374 115 303 q 99 233 99 169 q 99 16 194 -137 z"},"C":{"x_min":0,"x_max":471,"ha":471,"o":"m 384 164 l 446 148 q 406 -8 252 -8 q 139 -8 86 63 q 33 133 33 237 q 33 355 96 415 q 160 475 253 475 q 398 475 438 339 l 377 325 q 346 422 252 422 q 176 422 136 374 q 96 325 96 237 q 96 136 139 91 q 183 45 247 45 q 358 45 384 164 z"},"W":{"x_min":0,"x_max":616,"ha":616,"o":"m 132 0 l 8 467 l 71 467 l 143 161 q 154 113 162 65 l 183 152 l 272 467 l 347 467 l 414 231 q 440 137 450 65 q 459 109 473 167 l 547 467 l 609 467 l 480 0 l 421 0 l 323 356 l 308 411 q 304 392 294 356 l 195 0 z"},"A":{"x_min":0,"x_max":436,"ha":436,"o":"m -1 0 l 179 467 l 245 467 l 437 0 l 366 0 l 312 142 l 116 142 l 65 0 z m 134 192 l 292 192 l 244 321 q 219 386 210 418 q 202 373 185 329 z"},"f":{"x_min":0,"x_max":181,"ha":181,"o":"m 57 0 l 57 294 l 6 294 l 6 338 l 57 338 l 57 375 q 57 406 62 423 q 68 440 80 452 q 91 463 109 469 q 127 475 150 475 q 175 475 204 470 l 195 419 q 178 423 162 423 q 135 423 124 411 q 114 400 114 370 l 114 338 l 180 338 l 180 294 l 114 294 l 114 0 z"},"Q":{"x_min":0,"x_max":508,"ha":508,"o":"m 404 50 q 448 21 484 7 l 466 -36 q 416 -18 365 21 q 313 -8 250 -8 q 144 -8 86 63 q 28 134 28 234 q 28 351 92 413 q 156 476 252 476 q 314 476 363 451 q 412 427 443 373 q 475 319 475 234 q 475 118 404 50 z m 269 129 q 322 114 356 84 q 411 134 411 234 q 411 318 369 370 q 326 422 252 422 q 201 422 166 400 q 131 377 111 335 q 92 293 92 234 q 92 149 134 97 q 176 45 252 45 q 285 45 314 58 q 286 76 253 84 z"},"w":{"x_min":0,"x_max":471,"ha":471,"o":"m 105 0 l 2 338 l 61 338 l 135 70 q 140 94 153 140 l 207 338 l 266 338 l 333 78 l 411 338 l 466 338 l 360 0 l 301 0 l 234 260 l 166 0 z"},"-":{"x_min":0,"x_max":217,"ha":217,"o":"m 21 140 l 21 198 l 197 198 l 197 140 z"},"E":{"x_min":0,"x_max":436,"ha":436,"o":"m 52 0 l 52 467 l 390 467 l 390 412 l 113 412 l 113 269 l 372 269 l 372 214 l 113 214 l 113 55 l 400 55 l 400 0 z"},"s":{"x_min":0,"x_max":326,"ha":326,"o":"m 20 101 l 77 110 q 87 40 165 40 q 242 40 242 93 q 242 113 229 122 q 215 131 167 144 q 135 151 111 158 q 86 166 67 179 q 48 192 39 209 q 30 227 30 249 q 30 274 42 295 q 55 316 83 331 q 110 346 154 346 q 195 346 223 336 q 251 326 267 305 q 283 285 289 251 l 232 244 q 224 299 158 299 q 85 299 85 255 q 85 243 92 234 q 99 226 109 222 q 119 218 165 205 q 176 202 218 191 q 259 180 280 156 q 301 133 301 100 q 301 50 262 21 q 223 -8 165 -8 q 40 -8 20 101 z"},">":{"x_min":0,"x_max":381,"ha":381,"o":"m 345 204 l 36 72 l 36 129 l 281 231 l 36 332 l 36 389 l 345 258 z"},"l":{"x_min":0,"x_max":145,"ha":145,"o":"m 42 0 l 42 467 l 99 467 l 99 0 z"},"8":{"x_min":0,"x_max":363,"ha":363,"o":"m 115 253 q 45 279 45 349 q 45 380 60 406 q 74 433 104 451 q 135 469 180 469 q 216 469 247 455 q 277 441 296 413 q 315 385 315 347 q 315 279 247 253 q 334 225 334 134 q 334 71 291 32 q 248 -8 180 -8 q 113 -8 70 32 q 26 72 26 135 q 26 230 115 253 z m 104 351 q 104 317 125 296 q 147 275 181 275 q 213 275 235 296 q 256 316 256 348 q 256 367 248 383 q 239 399 222 411 q 204 422 180 422 q 158 422 141 412 q 124 402 114 387 q 104 371 104 351 z m 85 135 q 85 90 114 64 q 142 39 181 39 q 222 39 249 65 q 276 92 276 133 q 276 161 263 182 q 251 204 229 216 q 208 229 179 229 q 154 229 134 218 q 113 208 99 186 q 85 165 85 135 z"},"\\":{"x_min":0,"x_max":181,"ha":181,"o":"m 135 -8 l 0 475 l 46 475 l 181 -8 z"},"e":{"x_min":0,"x_max":363,"ha":363,"o":"m 275 109 l 334 102 q 305 -8 185 -8 q 134 -8 98 13 q 62 34 43 73 q 24 111 24 167 q 24 249 66 298 q 109 346 182 346 q 198 346 213 344 q 227 341 240 336 q 253 332 265 324 q 276 317 286 308 q 296 297 305 285 q 313 272 320 258 q 326 244 330 228 q 333 211 335 193 q 335 188 335 155 l 83 155 q 86 102 113 71 q 141 40 186 40 q 250 40 275 109 z m 86 202 l 275 202 q 271 250 246 275 q 220 299 183 299 q 155 299 135 287 q 114 275 101 253 q 88 232 86 202 z"},"b":{"x_min":0,"x_max":363,"ha":363,"o":"m 96 0 l 42 0 l 42 467 l 100 467 l 100 301 q 136 346 193 346 q 237 346 268 325 q 300 304 318 266 q 336 227 336 174 q 336 94 296 43 q 256 -8 190 -8 q 130 -8 96 42 z m 95 172 q 95 122 106 95 q 117 69 138 54 q 159 40 185 40 q 228 40 253 76 q 278 112 278 169 q 278 210 267 239 q 255 268 236 283 q 216 299 188 299 q 143 299 119 261 q 95 224 95 172 z"},"%":{"x_min":0,"x_max":581,"ha":581,"o":"m 38 355 q 38 390 49 417 q 61 443 83 459 q 105 475 136 475 q 164 475 186 463 q 208 451 223 423 q 238 396 238 352 q 238 296 210 262 q 183 228 137 228 q 90 228 64 262 q 38 296 38 355 z m 138 436 q 88 436 88 349 q 88 268 138 268 q 188 268 188 354 q 188 436 138 436 z m 138 -17 l 394 475 l 440 475 l 186 -17 z m 340 110 q 340 147 353 174 q 365 201 386 215 q 408 230 438 230 q 486 230 513 197 q 540 163 540 106 q 540 51 513 17 q 485 -17 439 -17 q 412 -17 391 -5 q 370 7 355 35 q 340 64 340 110 z m 440 190 q 390 190 390 104 q 390 22 440 22 q 490 22 490 108 q 490 190 440 190 z"},"m":{"x_min":0,"x_max":544,"ha":544,"o":"m 43 0 l 43 338 l 94 338 l 94 291 q 130 346 197 346 q 271 346 292 287 q 333 346 397 346 q 502 346 502 232 l 502 0 l 445 0 l 445 213 q 445 296 384 296 q 302 296 302 197 l 302 0 l 244 0 l 244 220 q 244 296 184 296 q 156 296 138 284 q 119 271 110 247 q 101 222 101 176 l 101 0 z"},"#":{"x_min":0,"x_max":363,"ha":363,"o":"m 33 -8 l 61 128 l 7 128 l 7 175 l 70 175 l 94 291 l 7 291 l 7 338 l 104 338 l 131 475 l 179 475 l 151 338 l 251 338 l 279 475 l 327 475 l 300 338 l 355 338 l 355 291 l 290 291 l 266 175 l 355 175 l 355 128 l 257 128 l 229 -8 l 181 -8 l 208 128 l 108 128 l 81 -8 z m 118 175 l 218 175 l 242 291 l 142 291 z"},",":{"x_min":0,"x_max":181,"ha":181,"o":"m 58 0 l 58 65 l 124 65 l 124 0 q 124 -69 70 -92 l 54 -68 q 89 -53 90 0 z"},"n":{"x_min":0,"x_max":363,"ha":363,"o":"m 43 0 l 43 338 l 95 338 l 95 291 q 132 346 203 346 q 318 346 318 223 l 318 0 l 261 0 l 261 206 q 261 296 190 296 q 101 296 101 185 l 101 0 z"},"h":{"x_min":0,"x_max":363,"ha":363,"o":"m 43 0 l 43 467 l 101 467 l 101 300 q 141 346 202 346 q 247 346 274 329 q 301 312 310 283 q 319 254 319 214 l 319 0 l 261 0 l 261 214 q 261 297 190 297 q 157 297 136 282 q 115 267 108 243 q 101 219 101 185 l 101 0 z"},"z":{"x_min":0,"x_max":326,"ha":326,"o":"m 13 0 l 13 46 l 228 294 q 191 292 164 292 l 25 292 l 25 338 l 302 338 l 302 301 l 83 46 q 122 49 156 49 l 312 49 l 312 0 z"},"B":{"x_min":0,"x_max":436,"ha":436,"o":"m 48 0 l 48 467 l 223 467 q 304 467 341 432 q 378 396 378 348 q 378 281 312 249 q 401 223 401 135 q 401 0 226 0 z m 110 271 l 211 271 q 245 271 267 276 q 289 280 303 297 q 317 313 317 340 q 317 369 304 385 q 292 402 269 407 q 246 412 203 412 l 110 412 z m 110 55 l 226 55 q 249 55 267 57 q 284 60 301 69 q 318 78 327 95 q 336 112 336 135 q 336 173 312 195 q 288 216 218 216 l 110 216 z"},"K":{"x_min":0,"x_max":436,"ha":436,"o":"m 48 0 l 48 467 l 110 467 l 110 235 l 342 467 l 425 467 l 229 278 l 434 0 l 353 0 l 186 236 l 110 162 l 110 0 z"},"R":{"x_min":0,"x_max":471,"ha":471,"o":"m 51 0 l 51 467 l 258 467 q 317 467 342 459 q 367 451 383 437 q 400 422 412 397 q 425 373 425 340 q 425 230 293 212 q 321 200 343 177 q 364 154 382 127 l 463 0 l 385 0 l 324 97 q 301 133 284 155 q 268 176 252 188 q 236 201 223 204 q 210 208 185 208 l 113 208 l 113 0 z m 113 261 l 246 261 q 309 261 335 283 q 361 305 361 340 q 361 416 261 416 l 113 416 z"},"T":{"x_min":0,"x_max":399,"ha":399,"o":"m 169 0 l 169 412 l 15 412 l 15 467 l 386 467 l 386 412 l 231 412 l 231 0 z"},"P":{"x_min":0,"x_max":436,"ha":436,"o":"m 50 0 l 50 467 l 227 467 q 266 467 295 463 q 325 459 350 444 q 376 428 392 399 q 407 370 407 332 q 407 190 232 190 l 112 190 l 112 0 z m 112 245 l 233 245 q 343 245 343 330 q 343 351 338 366 q 332 381 321 391 q 310 402 294 407 q 278 412 232 412 l 112 412 z"},"|":{"x_min":0,"x_max":169,"ha":169,"o":"m 60 -137 l 60 475 l 110 475 l 110 -137 z"},"t":{"x_min":0,"x_max":181,"ha":181,"o":"m 168 51 l 177 0 q 152 -4 133 -4 q 106 -4 89 4 q 71 12 62 28 q 54 44 54 99 l 54 294 l 12 294 l 12 338 l 54 338 l 54 422 l 111 457 l 111 338 l 168 338 l 168 294 l 111 294 l 111 96 q 111 73 114 65 q 117 57 124 53 q 131 49 143 49 q 153 49 168 51 z"},"M":{"x_min":0,"x_max":544,"ha":544,"o":"m 48 0 l 48 467 l 142 467 l 252 136 l 274 67 l 299 142 l 411 467 l 494 467 l 494 0 l 435 0 l 435 391 l 299 0 l 243 0 l 108 398 l 108 0 z"},"g":{"x_min":0,"x_max":363,"ha":363,"o":"m 33 -28 l 88 -36 q 96 -90 166 -90 q 192 -90 211 -83 q 230 -75 241 -61 q 253 -46 257 -28 q 261 -10 261 44 q 224 0 167 0 q 123 0 91 21 q 58 43 40 81 q 21 120 21 171 q 21 251 61 299 q 101 346 167 346 q 228 346 267 298 l 267 338 l 319 338 l 319 46 q 319 -18 310 -48 q 301 -78 282 -97 q 263 -117 234 -127 q 205 -137 167 -137 q 99 -137 65 -107 q 31 -78 33 -28 z m 80 175 q 80 47 173 47 q 217 47 241 81 q 266 115 266 173 q 266 229 240 264 q 215 299 172 299 q 126 299 103 263 q 80 227 80 175 z"},"j":{"x_min":0,"x_max":145,"ha":145,"o":"m 42 401 l 42 467 l 100 467 l 100 401 z m -30 -131 l -19 -83 q -2 -87 8 -87 q 22 -87 31 -79 q 39 -70 41 -57 q 42 -44 42 -17 l 42 338 l 100 338 l 100 -19 q 100 -60 93 -85 q 86 -110 66 -124 q 46 -137 15 -137 q -8 -137 -30 -131 z"},"i":{"x_min":0,"x_max":145,"ha":145,"o":"m 43 401 l 43 467 l 101 467 l 101 401 z m 43 0 l 43 338 l 101 338 l 101 0 z"},"y":{"x_min":0,"x_max":326,"ha":326,"o":"m 41 -130 l 34 -77 q 53 -82 67 -82 q 87 -82 100 -74 q 113 -66 118 -54 q 124 -42 138 -3 l 139 0 l 11 338 l 72 338 l 143 143 q 158 99 167 64 q 177 103 191 141 l 263 338 l 321 338 l 192 -6 q 173 -55 161 -81 q 148 -106 127 -122 q 106 -137 78 -137 q 61 -137 41 -130 z"},"@":{"x_min":0,"x_max":663,"ha":663,"o":"m 370 52 q 324 -1 272 -1 q 219 -1 188 42 q 157 85 157 142 q 157 194 183 245 q 209 295 248 321 q 287 346 322 346 q 383 346 418 287 l 429 336 l 486 336 l 440 123 q 431 79 431 73 q 431 52 453 52 q 465 52 488 64 q 510 77 531 101 q 553 125 565 157 q 576 189 576 228 q 576 322 509 375 q 441 429 349 429 q 293 429 246 410 q 198 392 162 357 q 126 322 104 268 q 83 215 83 155 q 83 74 115 20 q 148 -35 213 -62 q 277 -90 357 -90 q 514 -90 582 6 l 639 6 q 612 -53 539 -95 q 465 -137 358 -137 q 263 -137 191 -106 q 120 -75 78 -10 q 35 55 35 149 q 35 217 60 281 q 85 344 126 388 q 167 432 223 454 q 280 476 351 476 q 480 476 552 402 q 624 327 624 227 q 624 138 564 68 q 504 -1 432 -1 q 372 -1 370 52 z m 216 138 q 216 100 234 73 q 253 46 284 46 q 333 46 367 98 q 400 150 400 207 q 400 247 380 272 q 360 298 326 298 q 280 298 248 248 q 216 197 216 138 z"},".":{"x_min":0,"x_max":181,"ha":181,"o":"m 59 0 l 59 65 l 125 65 l 125 0 z"},"p":{"x_min":0,"x_max":363,"ha":363,"o":"m 43 -130 l 43 338 l 95 338 l 95 294 q 132 346 193 346 q 265 346 301 295 q 337 244 337 172 q 337 82 292 37 q 247 -8 189 -8 q 134 -8 101 35 l 101 -130 z m 95 167 q 95 128 106 100 q 116 71 136 55 q 157 40 186 40 q 231 40 255 78 q 278 116 278 172 q 278 229 254 265 q 229 301 188 301 q 144 301 120 262 q 95 223 95 167 z"},"X":{"x_min":0,"x_max":436,"ha":436,"o":"m 3 0 l 184 244 l 24 467 l 98 467 l 183 348 q 209 311 220 290 q 232 311 257 343 l 351 467 l 418 467 l 254 247 l 431 0 l 355 0 l 237 167 q 229 178 217 198 q 204 176 194 163 l 77 0 z"},"*":{"x_min":0,"x_max":254,"ha":254,"o":"m 21 381 l 35 427 q 86 409 109 396 q 103 454 103 475 l 148 475 q 147 444 141 396 q 174 413 216 427 l 231 381 q 190 368 152 364 q 171 347 207 303 l 168 276 q 150 302 125 345 q 101 300 83 276 l 45 303 q 83 349 99 364 q 58 372 21 381 z"},"Y":{"x_min":0,"x_max":436,"ha":436,"o":"m 182 0 l 182 198 l 2 467 l 77 467 l 169 326 q 191 293 217 248 q 244 294 268 330 l 358 467 l 430 467 l 244 198 l 244 0 z"},"c":{"x_min":0,"x_max":326,"ha":326,"o":"m 264 124 l 320 117 q 312 60 274 26 q 236 -8 180 -8 q 107 -8 66 39 q 25 86 25 168 q 25 227 43 266 q 62 305 99 326 q 136 346 180 346 q 294 346 315 239 l 259 230 q 243 299 182 299 q 84 299 84 169 q 84 40 179 40 q 252 40 264 124 z"},"!":{"x_min":0,"x_max":181,"ha":181,"o":"m 74 116 l 56 364 l 56 467 l 127 467 l 127 364 l 111 116 z m 59 0 l 59 65 l 125 65 l 125 0 z"},"/":{"x_min":0,"x_max":181,"ha":181,"o":"m 0 -8 l 135 475 l 181 475 l 46 -8 z"},"[":{"x_min":0,"x_max":181,"ha":181,"o":"m 44 -130 l 44 467 l 171 467 l 171 420 l 102 420 l 102 -82 l 171 -82 l 171 -130 z"},"6":{"x_min":0,"x_max":363,"ha":363,"o":"m 325 353 l 268 349 q 259 388 238 405 q 217 422 188 422 q 143 422 112 378 q 82 334 82 241 q 123 303 195 303 q 236 303 266 283 q 297 264 315 230 q 333 196 333 152 q 333 77 291 34 q 248 -8 187 -8 q 24 -8 24 219 q 24 469 192 469 q 229 469 258 455 q 286 441 303 416 q 320 390 325 353 z m 90 151 q 90 104 117 72 q 144 39 186 39 q 226 39 250 70 q 274 102 274 148 q 274 180 263 204 q 251 227 231 240 q 211 252 184 252 q 156 252 135 240 q 115 228 103 205 q 90 182 90 151 z"},"r":{"x_min":0,"x_max":217,"ha":217,"o":"m 42 0 l 42 338 l 94 338 l 94 287 q 126 346 167 346 q 196 346 226 328 l 207 274 q 186 287 165 287 q 143 287 128 275 q 114 263 107 235 q 100 207 100 177 l 100 0 z"},"2":{"x_min":0,"x_max":363,"ha":363,"o":"m 327 55 l 327 0 l 18 0 q 18 41 47 82 q 76 122 138 173 q 184 211 210 237 q 236 262 252 290 q 268 317 268 341 q 268 365 256 383 q 245 401 225 411 q 206 422 180 422 q 137 422 113 397 q 88 372 88 328 l 29 334 q 42 469 181 469 q 245 469 286 434 q 327 398 327 339 q 327 305 305 265 q 284 226 188 145 q 146 109 129 93 q 111 77 98 55 z"},"{":{"x_min":0,"x_max":218,"ha":218,"o":"m 18 195 q 42 196 58 207 q 73 219 78 242 q 84 265 84 318 q 84 371 86 393 q 89 416 97 432 q 104 448 118 458 q 131 469 145 472 q 159 475 185 475 l 203 475 l 203 425 l 193 425 q 157 425 147 412 q 138 398 138 360 q 138 293 135 263 q 133 233 117 208 q 101 184 71 169 q 101 157 120 128 q 138 99 138 25 q 138 -31 139 -45 q 140 -60 145 -70 q 150 -80 161 -83 q 172 -87 193 -87 l 203 -87 l 203 -137 l 185 -137 q 158 -137 144 -134 q 130 -130 117 -120 q 104 -109 97 -94 q 90 -79 88 -67 l 85 38 q 84 90 69 116 q 55 142 18 143 z"},"9":{"x_min":0,"x_max":363,"ha":363,"o":"m 36 108 l 91 113 q 104 39 168 39 q 183 39 195 43 q 208 46 219 54 q 230 62 239 72 q 248 83 255 96 q 261 109 266 124 q 271 138 273 155 q 276 171 277 189 l 277 220 q 238 158 166 158 q 104 158 66 202 q 27 246 27 312 q 27 359 46 395 q 65 430 98 450 q 130 469 174 469 q 221 469 255 448 q 289 428 312 382 q 334 337 334 243 q 334 115 290 54 q 246 -8 167 -8 q 133 -8 106 4 q 79 16 60 42 q 41 68 36 108 z m 271 314 q 271 360 246 391 q 222 422 181 422 q 139 422 112 389 q 86 355 86 310 q 86 267 112 238 q 139 209 180 209 q 222 209 246 238 q 271 268 271 314 z"}," ":{"x_min":0,"x_max":222,"ha":222,"o":""},"I":{"x_min":0,"x_max":181,"ha":181,"o":"m 61 0 l 61 467 l 123 467 l 123 0 z"},"H":{"x_min":0,"x_max":471,"ha":471,"o":"m 52 0 l 52 467 l 114 467 l 114 275 l 357 275 l 357 467 l 419 467 l 419 0 l 357 0 l 357 220 l 114 220 l 114 0 z"},"4":{"x_min":0,"x_max":363,"ha":363,"o":"m 211 0 l 211 112 l 8 112 l 8 165 l 222 467 l 269 467 l 269 165 l 332 165 l 332 112 l 269 112 l 269 0 z m 211 165 l 211 375 l 65 165 z"},"~":{"x_min":0,"x_max":381,"ha":381,"o":"m 28 178 l 28 243 q 62 281 116 281 q 151 281 216 253 q 252 238 271 238 q 314 238 354 282 l 354 214 q 315 178 266 178 q 232 178 174 204 q 137 221 111 221 q 73 221 28 178 z"},"D":{"x_min":0,"x_max":471,"ha":471,"o":"m 50 0 l 50 467 l 211 467 q 257 467 293 461 q 329 455 362 428 q 395 402 416 354 q 437 305 437 236 q 437 131 386 65 q 336 0 219 0 z m 112 55 l 212 55 q 273 55 306 73 q 339 91 356 134 q 373 176 373 237 q 373 280 365 312 q 356 345 339 367 q 322 389 295 400 q 269 412 210 412 l 112 412 z"},"^":{"x_min":0,"x_max":306,"ha":306,"o":"m 76 220 l 17 220 l 130 475 l 176 475 l 289 220 l 231 220 l 153 410 z"},"0":{"x_min":0,"x_max":363,"ha":363,"o":"m 27 230 q 27 469 180 469 q 332 469 332 230 q 332 -8 180 -8 q 27 -8 27 230 z m 86 230 q 86 39 180 39 q 273 39 273 230 q 273 422 179 422 q 86 422 86 230 z"},"F":{"x_min":0,"x_max":399,"ha":399,"o":"m 54 0 l 54 467 l 369 467 l 369 412 l 115 412 l 115 268 l 334 268 l 334 212 l 115 212 l 115 0 z"},"`":{"x_min":0,"x_max":217,"ha":217,"o":"m 148 380 l 102 380 l 28 470 l 105 470 z"},"k":{"x_min":0,"x_max":326,"ha":326,"o":"m 43 0 l 43 467 l 101 467 l 101 201 l 236 338 l 311 338 l 181 213 l 324 0 l 253 0 l 141 173 l 101 134 l 101 0 z"},"u":{"x_min":0,"x_max":363,"ha":363,"o":"m 265 0 l 265 50 q 226 -8 157 -8 q 126 -8 103 1 q 81 10 66 27 q 52 45 47 68 q 42 90 42 129 l 42 338 l 99 338 l 99 151 q 99 107 102 92 q 105 76 114 65 q 123 54 136 48 q 150 42 169 42 q 203 42 224 57 q 245 73 252 97 q 259 122 259 157 l 259 338 l 316 338 l 316 0 z"},"]":{"x_min":0,"x_max":181,"ha":181,"o":"m 139 -130 l 12 -130 l 12 -82 l 82 -82 l 82 420 l 12 420 l 12 467 l 139 467 z"},"U":{"x_min":0,"x_max":471,"ha":471,"o":"m 357 467 l 419 467 l 419 197 q 419 129 406 94 q 393 58 370 36 q 348 14 314 3 q 280 -8 236 -8 q 145 -8 98 36 q 51 80 51 197 l 51 467 l 113 467 l 113 198 q 113 142 121 117 q 129 93 144 78 q 159 63 180 55 q 202 48 231 48 q 272 48 299 60 q 327 71 342 101 q 357 130 357 198 z"},"o":{"x_min":0,"x_max":363,"ha":363,"o":"m 21 169 q 21 257 66 302 q 111 346 180 346 q 224 346 258 328 q 293 311 316 271 q 339 232 339 174 q 339 81 293 36 q 247 -8 180 -8 q 130 -8 95 13 q 60 35 41 74 q 21 114 21 169 z m 81 169 q 81 128 93 99 q 105 69 127 54 q 149 40 180 40 q 229 40 254 75 q 280 111 280 171 q 280 229 253 264 q 227 299 180 299 q 130 299 105 262 q 81 225 81 169 z"},"N":{"x_min":0,"x_max":471,"ha":471,"o":"m 50 0 l 50 467 l 113 467 l 358 101 l 358 467 l 418 467 l 418 0 l 354 0 l 109 367 l 109 0 z"},"+":{"x_min":0,"x_max":381,"ha":381,"o":"m 164 76 l 164 204 l 36 204 l 36 257 l 164 257 l 164 384 l 218 384 l 218 257 l 345 257 l 345 204 l 218 204 l 218 76 z"},"G":{"x_min":0,"x_max":508,"ha":508,"o":"m 269 183 l 269 238 l 467 238 l 467 65 q 375 -8 273 -8 q 217 -8 174 8 q 130 24 100 56 q 69 87 52 133 q 35 179 35 231 q 35 338 95 406 q 155 475 269 475 q 427 475 460 336 l 404 321 q 375 422 269 422 q 188 422 143 373 q 99 324 99 235 q 99 136 149 92 q 199 48 270 48 q 352 48 406 96 l 406 183 z"},"q":{"x_min":0,"x_max":363,"ha":363,"o":"m 259 -130 l 259 36 q 228 -8 170 -8 q 137 -8 110 5 q 83 19 63 45 q 43 71 33 103 q 23 135 23 172 q 23 259 65 303 q 106 346 166 346 q 229 346 265 293 l 265 338 l 316 338 l 316 -130 z m 82 170 q 82 131 93 102 q 104 72 125 56 q 146 40 175 40 q 219 40 242 76 q 265 112 265 165 q 265 224 240 262 q 215 301 171 301 q 127 301 104 264 q 82 227 82 170 z"},"d":{"x_min":0,"x_max":363,"ha":363,"o":"m 263 0 l 263 42 q 230 -8 168 -8 q 100 -8 61 43 q 22 94 22 169 q 22 224 41 264 q 59 304 90 325 q 121 346 166 346 q 225 346 259 300 l 259 467 l 316 467 l 316 0 z m 81 169 q 81 131 92 102 q 103 72 124 56 q 145 40 173 40 q 215 40 240 73 q 264 107 264 164 q 264 227 239 263 q 215 299 171 299 q 81 299 81 169 z"},"1":{"x_min":0,"x_max":363,"ha":363,"o":"m 243 0 l 186 0 l 186 366 q 140 322 71 296 l 71 352 q 171 399 206 469 l 243 469 z"},"5":{"x_min":0,"x_max":363,"ha":363,"o":"m 27 123 l 87 127 q 101 39 177 39 q 203 39 224 51 q 245 63 260 89 q 276 116 276 153 q 276 201 249 230 q 223 259 176 259 q 120 259 91 214 l 37 221 l 83 461 l 315 461 l 315 406 l 128 406 l 104 280 q 146 310 191 310 q 234 310 267 290 q 299 271 318 237 q 337 203 337 158 q 337 109 315 71 q 293 33 258 12 q 224 -8 177 -8 q 114 -8 74 27 q 33 62 27 123 z"}}}
